<?xml version="1.0" encoding="utf-8"?>
<!-- Generator: Adobe Illustrator 25.2.0, SVG Export Plug-In . SVG Version: 6.00 Build 0)  -->
<svg version="1.1" id="Capa_1" xmlns="http://www.w3.org/2000/svg" xmlns:xlink="http://www.w3.org/1999/xlink" x="0px" y="0px"
	 viewBox="0 0 28.6 28.6" style="enable-background:new 0 0 28.6 28.6;" xml:space="preserve">
<style type="text/css">
	.st0{fill:#FF0000;}
</style>
<g>
	<path class="st0" d="M14.3,0C7.4,0,1.8,5.6,1.8,12.5c0,4.7,2.6,8.8,6.5,11l-0.1,5.2L14,25c0.1,0,0.2,0,0.3,0
		c6.9,0,12.5-5.6,12.5-12.5S21.2,0,14.3,0z M15.9,19.8h-3.2V9.5h3.2V19.8z M14.3,8.2c-1,0-1.7-0.7-1.7-1.6c0-0.9,0.7-1.6,1.7-1.6
		c1,0,1.7,0.7,1.7,1.6C16,7.5,15.3,8.2,14.3,8.2z"/>
</g>
</svg>
